<mxfile host="app.diagrams.net" modified="2023-08-21T08:08:14.305Z" agent="Mozilla/5.0 (X11; Linux x86_64) AppleWebKit/537.36 (KHTML, like Gecko) Chrome/115.0.0.0 Safari/537.36" etag="F2qTwmU87mw827IljkjG" version="21.6.8" type="github" pages="4">
  <diagram id="C5RBs43oDa-KdzZeNtuy" name="wifi_daemon">
    <mxGraphModel dx="2346" dy="935" grid="1" gridSize="10" guides="1" tooltips="1" connect="1" arrows="1" fold="1" page="1" pageScale="1" pageWidth="827" pageHeight="1169" math="0" shadow="0">
      <root>
        <mxCell id="WIyWlLk6GJQsqaUBKTNV-0" />
        <mxCell id="WIyWlLk6GJQsqaUBKTNV-1" parent="WIyWlLk6GJQsqaUBKTNV-0" />
        <mxCell id="92I55pFNdv6Zz8E2jE-A-6" value="wifi_daemon" style="shape=umlLifeline;perimeter=lifelinePerimeter;whiteSpace=wrap;html=1;container=1;dropTarget=0;collapsible=0;recursiveResize=0;outlineConnect=0;portConstraint=eastwest;newEdgeStyle={&quot;edgeStyle&quot;:&quot;elbowEdgeStyle&quot;,&quot;elbow&quot;:&quot;vertical&quot;,&quot;curved&quot;:0,&quot;rounded&quot;:0};" parent="WIyWlLk6GJQsqaUBKTNV-1" vertex="1">
          <mxGeometry x="50" y="860" width="100" height="1460" as="geometry" />
        </mxCell>
        <mxCell id="92I55pFNdv6Zz8E2jE-A-7" value="client" style="shape=umlLifeline;perimeter=lifelinePerimeter;whiteSpace=wrap;html=1;container=1;dropTarget=0;collapsible=0;recursiveResize=0;outlineConnect=0;portConstraint=eastwest;newEdgeStyle={&quot;edgeStyle&quot;:&quot;elbowEdgeStyle&quot;,&quot;elbow&quot;:&quot;vertical&quot;,&quot;curved&quot;:0,&quot;rounded&quot;:0};" parent="WIyWlLk6GJQsqaUBKTNV-1" vertex="1">
          <mxGeometry x="482.5" y="950" width="100" height="2250" as="geometry" />
        </mxCell>
        <mxCell id="92I55pFNdv6Zz8E2jE-A-8" value=":Object" style="shape=umlLifeline;perimeter=lifelinePerimeter;whiteSpace=wrap;html=1;container=1;dropTarget=0;collapsible=0;recursiveResize=0;outlineConnect=0;portConstraint=eastwest;newEdgeStyle={&quot;edgeStyle&quot;:&quot;elbowEdgeStyle&quot;,&quot;elbow&quot;:&quot;vertical&quot;,&quot;curved&quot;:0,&quot;rounded&quot;:0};" parent="WIyWlLk6GJQsqaUBKTNV-1" vertex="1">
          <mxGeometry x="700" y="60" width="100" height="310" as="geometry" />
        </mxCell>
        <mxCell id="92I55pFNdv6Zz8E2jE-A-9" value="ctl.pdfs[0] = socket" style="rounded=0;whiteSpace=wrap;html=1;" parent="WIyWlLk6GJQsqaUBKTNV-1" vertex="1">
          <mxGeometry x="50" y="140" width="120" height="60" as="geometry" />
        </mxCell>
        <mxCell id="92I55pFNdv6Zz8E2jE-A-10" value="bind&lt;br&gt;&quot;/var/run/wifidaemon/181025&quot;" style="rounded=0;whiteSpace=wrap;html=1;" parent="WIyWlLk6GJQsqaUBKTNV-1" vertex="1">
          <mxGeometry y="220" width="220" height="60" as="geometry" />
        </mxCell>
        <mxCell id="92I55pFNdv6Zz8E2jE-A-11" value="listen" style="rounded=0;whiteSpace=wrap;html=1;" parent="WIyWlLk6GJQsqaUBKTNV-1" vertex="1">
          <mxGeometry x="50" y="380" width="120" height="60" as="geometry" />
        </mxCell>
        <mxCell id="92I55pFNdv6Zz8E2jE-A-12" value="chmod&lt;br&gt;/var/run/wifidaemon/181025" style="rounded=0;whiteSpace=wrap;html=1;" parent="WIyWlLk6GJQsqaUBKTNV-1" vertex="1">
          <mxGeometry x="15" y="300" width="190" height="60" as="geometry" />
        </mxCell>
        <mxCell id="92I55pFNdv6Zz8E2jE-A-14" value="&lt;div style=&quot;color: rgb(204, 204, 204); background-color: rgb(31, 31, 31); font-family: &amp;quot;Droid Sans Mono&amp;quot;, &amp;quot;monospace&amp;quot;, monospace; font-size: 14px; line-height: 19px;&quot;&gt;&lt;div style=&quot;line-height: 19px;&quot;&gt;wpa_ctrl_open(&lt;span style=&quot;color: #9cdcfe;&quot;&gt;path&lt;/span&gt;);&lt;/div&gt;&lt;/div&gt;&lt;div style=&quot;color: rgb(204, 204, 204); background-color: rgb(31, 31, 31); font-family: &amp;quot;Droid Sans Mono&amp;quot;, &amp;quot;monospace&amp;quot;, monospace; font-size: 14px; line-height: 19px;&quot;&gt;/etc/wifi/sockets/wlan0&lt;/div&gt;" style="rounded=0;whiteSpace=wrap;html=1;" parent="WIyWlLk6GJQsqaUBKTNV-1" vertex="1">
          <mxGeometry x="2.5" y="480" width="215" height="60" as="geometry" />
        </mxCell>
        <mxCell id="92I55pFNdv6Zz8E2jE-A-15" value="&lt;div style=&quot;color: rgb(204, 204, 204); background-color: rgb(31, 31, 31); font-family: &amp;quot;Droid Sans Mono&amp;quot;, &amp;quot;monospace&amp;quot;, monospace; font-size: 14px; line-height: 19px;&quot;&gt;wpa_ctrl_attach&lt;/div&gt;" style="rounded=0;whiteSpace=wrap;html=1;" parent="WIyWlLk6GJQsqaUBKTNV-1" vertex="1">
          <mxGeometry x="35" y="560" width="150" height="60" as="geometry" />
        </mxCell>
        <mxCell id="92I55pFNdv6Zz8E2jE-A-16" value="&lt;div style=&quot;color: rgb(204, 204, 204); background-color: rgb(31, 31, 31); font-family: &amp;quot;Droid Sans Mono&amp;quot;, &amp;quot;monospace&amp;quot;, monospace; font-size: 14px; line-height: 19px;&quot;&gt;socketpair&lt;/div&gt;" style="rounded=0;whiteSpace=wrap;html=1;" parent="WIyWlLk6GJQsqaUBKTNV-1" vertex="1">
          <mxGeometry x="50" y="640" width="120" height="60" as="geometry" />
        </mxCell>
        <mxCell id="92I55pFNdv6Zz8E2jE-A-17" value="&lt;div style=&quot;color: rgb(204, 204, 204); background-color: rgb(31, 31, 31); font-family: &amp;quot;Droid Sans Mono&amp;quot;, &amp;quot;monospace&amp;quot;, monospace; font-weight: normal; font-size: 14px; line-height: 19px;&quot;&gt;&lt;div&gt;&lt;span style=&quot;color: #dcdcaa;&quot;&gt;aw_wifi_add_state_callback&lt;/span&gt;&lt;span style=&quot;color: #cccccc;&quot;&gt;(&lt;/span&gt;&lt;span style=&quot;color: #9cdcfe;&quot;&gt;pcb&lt;/span&gt;&lt;span style=&quot;color: #cccccc;&quot;&gt;);&lt;/span&gt;&lt;/div&gt;&lt;/div&gt;" style="rounded=0;whiteSpace=wrap;html=1;" parent="WIyWlLk6GJQsqaUBKTNV-1" vertex="1">
          <mxGeometry x="-35" y="720" width="290" height="60" as="geometry" />
        </mxCell>
        <mxCell id="92I55pFNdv6Zz8E2jE-A-18" value="&lt;div style=&quot;color: rgb(204, 204, 204); background-color: rgb(31, 31, 31); font-family: &amp;quot;Droid Sans Mono&amp;quot;, &amp;quot;monospace&amp;quot;, monospace; font-size: 14px; line-height: 19px;&quot;&gt;wifi_start_event_loop&lt;/div&gt;" style="rounded=0;whiteSpace=wrap;html=1;" parent="WIyWlLk6GJQsqaUBKTNV-1" vertex="1">
          <mxGeometry x="-260" y="880" width="210" height="60" as="geometry" />
        </mxCell>
        <mxCell id="92I55pFNdv6Zz8E2jE-A-19" value="" style="endArrow=classic;html=1;rounded=0;entryX=1;entryY=0.5;entryDx=0;entryDy=0;" parent="WIyWlLk6GJQsqaUBKTNV-1" source="92I55pFNdv6Zz8E2jE-A-6" target="92I55pFNdv6Zz8E2jE-A-18" edge="1">
          <mxGeometry width="50" height="50" relative="1" as="geometry">
            <mxPoint x="380" y="940" as="sourcePoint" />
            <mxPoint x="430" y="890" as="targetPoint" />
          </mxGeometry>
        </mxCell>
        <mxCell id="92I55pFNdv6Zz8E2jE-A-20" value="&lt;div style=&quot;color: rgb(204, 204, 204); background-color: rgb(31, 31, 31); font-family: &amp;quot;Droid Sans Mono&amp;quot;, &amp;quot;monospace&amp;quot;, monospace; font-size: 14px; line-height: 19px;&quot;&gt;evtSocketInit();&lt;/div&gt;" style="rounded=0;whiteSpace=wrap;html=1;" parent="WIyWlLk6GJQsqaUBKTNV-1" vertex="1">
          <mxGeometry x="30" y="930" width="160" height="60" as="geometry" />
        </mxCell>
        <mxCell id="92I55pFNdv6Zz8E2jE-A-21" value="&lt;div style=&quot;color: rgb(204, 204, 204); background-color: rgb(31, 31, 31); font-family: &amp;quot;Droid Sans Mono&amp;quot;, &amp;quot;monospace&amp;quot;, monospace; font-weight: normal; font-size: 14px; line-height: 19px;&quot;&gt;&lt;div&gt;&lt;span style=&quot;color: #dcdcaa;&quot;&gt;clearEvtSocket&lt;/span&gt;&lt;/div&gt;&lt;/div&gt;" style="rounded=0;whiteSpace=wrap;html=1;" parent="WIyWlLk6GJQsqaUBKTNV-1" vertex="1">
          <mxGeometry x="50" y="1000" width="120" height="60" as="geometry" />
        </mxCell>
        <mxCell id="92I55pFNdv6Zz8E2jE-A-24" style="edgeStyle=orthogonalEdgeStyle;rounded=0;orthogonalLoop=1;jettySize=auto;html=1;entryX=0.5;entryY=0;entryDx=0;entryDy=0;" parent="WIyWlLk6GJQsqaUBKTNV-1" source="92I55pFNdv6Zz8E2jE-A-22" target="92I55pFNdv6Zz8E2jE-A-23" edge="1">
          <mxGeometry relative="1" as="geometry" />
        </mxCell>
        <mxCell id="92I55pFNdv6Zz8E2jE-A-22" value="&lt;div style=&quot;color: rgb(204, 204, 204); background-color: rgb(31, 31, 31); font-family: &amp;quot;Droid Sans Mono&amp;quot;, &amp;quot;monospace&amp;quot;, monospace; font-size: 14px; line-height: 19px;&quot;&gt;ctl_loop&lt;/div&gt;" style="rounded=0;whiteSpace=wrap;html=1;" parent="WIyWlLk6GJQsqaUBKTNV-1" vertex="1">
          <mxGeometry x="50" y="1080" width="120" height="60" as="geometry" />
        </mxCell>
        <mxCell id="92I55pFNdv6Zz8E2jE-A-28" style="edgeStyle=orthogonalEdgeStyle;rounded=0;orthogonalLoop=1;jettySize=auto;html=1;" parent="WIyWlLk6GJQsqaUBKTNV-1" source="92I55pFNdv6Zz8E2jE-A-23" target="92I55pFNdv6Zz8E2jE-A-27" edge="1">
          <mxGeometry relative="1" as="geometry" />
        </mxCell>
        <mxCell id="92I55pFNdv6Zz8E2jE-A-23" value="&lt;div style=&quot;color: rgb(204, 204, 204); background-color: rgb(31, 31, 31); font-family: &amp;quot;Droid Sans Mono&amp;quot;, &amp;quot;monospace&amp;quot;, monospace; font-size: 14px; line-height: 19px;&quot;&gt;poll(&lt;span style=&quot;color: #9cdcfe;&quot;&gt;ctl&lt;/span&gt;.&lt;span style=&quot;color: #9cdcfe;&quot;&gt;pfds&lt;/span&gt;, &lt;span style=&quot;color: #569cd6;&quot;&gt;ARRAYSIZE&lt;/span&gt;(&lt;span style=&quot;color: #9cdcfe;&quot;&gt;ctl&lt;/span&gt;.&lt;span style=&quot;color: #9cdcfe;&quot;&gt;pfds&lt;/span&gt;), &lt;span style=&quot;color: #d4d4d4;&quot;&gt;-&lt;/span&gt;&lt;span style=&quot;color: #b5cea8;&quot;&gt;1&lt;/span&gt;)&lt;/div&gt;" style="rounded=0;whiteSpace=wrap;html=1;" parent="WIyWlLk6GJQsqaUBKTNV-1" vertex="1">
          <mxGeometry x="-460" y="1140" width="340" height="60" as="geometry" />
        </mxCell>
        <mxCell id="92I55pFNdv6Zz8E2jE-A-25" value="socket" style="rounded=0;whiteSpace=wrap;html=1;" parent="WIyWlLk6GJQsqaUBKTNV-1" vertex="1">
          <mxGeometry x="474" y="1050" width="120" height="60" as="geometry" />
        </mxCell>
        <mxCell id="92I55pFNdv6Zz8E2jE-A-31" style="edgeStyle=orthogonalEdgeStyle;rounded=0;orthogonalLoop=1;jettySize=auto;html=1;exitX=0;exitY=0.5;exitDx=0;exitDy=0;entryX=1;entryY=0.5;entryDx=0;entryDy=0;dashed=1;" parent="WIyWlLk6GJQsqaUBKTNV-1" source="92I55pFNdv6Zz8E2jE-A-26" target="92I55pFNdv6Zz8E2jE-A-23" edge="1">
          <mxGeometry relative="1" as="geometry" />
        </mxCell>
        <mxCell id="92I55pFNdv6Zz8E2jE-A-26" value="connect" style="rounded=0;whiteSpace=wrap;html=1;" parent="WIyWlLk6GJQsqaUBKTNV-1" vertex="1">
          <mxGeometry x="485" y="1290" width="120" height="50" as="geometry" />
        </mxCell>
        <mxCell id="92I55pFNdv6Zz8E2jE-A-30" style="edgeStyle=orthogonalEdgeStyle;rounded=0;orthogonalLoop=1;jettySize=auto;html=1;entryX=0.5;entryY=0;entryDx=0;entryDy=0;" parent="WIyWlLk6GJQsqaUBKTNV-1" source="92I55pFNdv6Zz8E2jE-A-27" target="92I55pFNdv6Zz8E2jE-A-29" edge="1">
          <mxGeometry relative="1" as="geometry" />
        </mxCell>
        <mxCell id="92I55pFNdv6Zz8E2jE-A-35" style="edgeStyle=orthogonalEdgeStyle;rounded=0;orthogonalLoop=1;jettySize=auto;html=1;entryX=0.5;entryY=0;entryDx=0;entryDy=0;" parent="WIyWlLk6GJQsqaUBKTNV-1" source="92I55pFNdv6Zz8E2jE-A-27" target="92I55pFNdv6Zz8E2jE-A-34" edge="1">
          <mxGeometry relative="1" as="geometry" />
        </mxCell>
        <mxCell id="92I55pFNdv6Zz8E2jE-A-49" style="edgeStyle=orthogonalEdgeStyle;rounded=0;orthogonalLoop=1;jettySize=auto;html=1;" parent="WIyWlLk6GJQsqaUBKTNV-1" source="92I55pFNdv6Zz8E2jE-A-27" target="92I55pFNdv6Zz8E2jE-A-48" edge="1">
          <mxGeometry relative="1" as="geometry" />
        </mxCell>
        <mxCell id="92I55pFNdv6Zz8E2jE-A-27" value="ctl.fds[1]&amp;nbsp; dispatch" style="rounded=0;whiteSpace=wrap;html=1;" parent="WIyWlLk6GJQsqaUBKTNV-1" vertex="1">
          <mxGeometry x="-420" y="1250" width="120" height="60" as="geometry" />
        </mxCell>
        <mxCell id="92I55pFNdv6Zz8E2jE-A-96" style="edgeStyle=orthogonalEdgeStyle;rounded=0;orthogonalLoop=1;jettySize=auto;html=1;entryX=0;entryY=0;entryDx=0;entryDy=0;" parent="WIyWlLk6GJQsqaUBKTNV-1" source="92I55pFNdv6Zz8E2jE-A-29" target="92I55pFNdv6Zz8E2jE-A-22" edge="1">
          <mxGeometry relative="1" as="geometry">
            <Array as="points">
              <mxPoint x="-740" y="1380" />
              <mxPoint x="-740" y="1080" />
            </Array>
          </mxGeometry>
        </mxCell>
        <mxCell id="92I55pFNdv6Zz8E2jE-A-29" value="accept&lt;br&gt;&lt;div style=&quot;color: rgb(204, 204, 204); background-color: rgb(31, 31, 31); font-family: &amp;quot;Droid Sans Mono&amp;quot;, &amp;quot;monospace&amp;quot;, monospace; font-size: 14px; line-height: 19px;&quot;&gt;(ctl.&lt;span style=&quot;color: #9cdcfe;&quot;&gt;pfds&lt;/span&gt;[&lt;span style=&quot;color: #569cd6;&quot;&gt;CTL_IDX_SRV&lt;/span&gt;].&lt;span style=&quot;color: #9cdcfe;&quot;&gt;revents&lt;/span&gt; &lt;span style=&quot;color: #d4d4d4;&quot;&gt;&amp;amp;&lt;/span&gt; &lt;span style=&quot;color: #569cd6;&quot;&gt;POLLIN&lt;/span&gt; &lt;span style=&quot;color: #d4d4d4;&quot;&gt;&amp;amp;&amp;amp;&lt;/span&gt; &lt;span style=&quot;color: #9cdcfe;&quot;&gt;pfd&lt;/span&gt; &lt;span style=&quot;color: #d4d4d4;&quot;&gt;!=&lt;/span&gt; &lt;span style=&quot;color: #569cd6;&quot;&gt;NULL）&lt;/span&gt;&lt;/div&gt;" style="rounded=0;whiteSpace=wrap;html=1;" parent="WIyWlLk6GJQsqaUBKTNV-1" vertex="1">
          <mxGeometry x="-495" y="1410" width="270" height="60" as="geometry" />
        </mxCell>
        <mxCell id="92I55pFNdv6Zz8E2jE-A-44" value="" style="edgeStyle=orthogonalEdgeStyle;rounded=0;orthogonalLoop=1;jettySize=auto;html=1;" parent="WIyWlLk6GJQsqaUBKTNV-1" source="92I55pFNdv6Zz8E2jE-A-32" target="92I55pFNdv6Zz8E2jE-A-43" edge="1">
          <mxGeometry relative="1" as="geometry" />
        </mxCell>
        <mxCell id="92I55pFNdv6Zz8E2jE-A-32" value="&lt;div style=&quot;color: rgb(204, 204, 204); background-color: rgb(31, 31, 31); font-family: &amp;quot;Droid Sans Mono&amp;quot;, &amp;quot;monospace&amp;quot;, monospace; font-size: 14px; line-height: 19px;&quot;&gt;get_cmd_msg_transport&lt;/div&gt;" style="rounded=0;whiteSpace=wrap;html=1;" parent="WIyWlLk6GJQsqaUBKTNV-1" vertex="1">
          <mxGeometry x="275" y="1520" width="220" height="60" as="geometry" />
        </mxCell>
        <mxCell id="92I55pFNdv6Zz8E2jE-A-42" style="edgeStyle=orthogonalEdgeStyle;rounded=0;orthogonalLoop=1;jettySize=auto;html=1;entryX=1;entryY=0.5;entryDx=0;entryDy=0;dashed=1;" parent="WIyWlLk6GJQsqaUBKTNV-1" source="92I55pFNdv6Zz8E2jE-A-33" target="92I55pFNdv6Zz8E2jE-A-34" edge="1">
          <mxGeometry relative="1" as="geometry">
            <mxPoint x="325" y="1430" as="targetPoint" />
          </mxGeometry>
        </mxCell>
        <mxCell id="92I55pFNdv6Zz8E2jE-A-33" value="send()&lt;br&gt;&lt;div style=&quot;color: rgb(204, 204, 204); background-color: rgb(31, 31, 31); font-family: &amp;quot;Droid Sans Mono&amp;quot;, &amp;quot;monospace&amp;quot;, monospace; font-size: 14px; line-height: 19px;&quot;&gt;DA_COMMAND_MSG_TRANSPORT&lt;/div&gt;" style="rounded=0;whiteSpace=wrap;html=1;" parent="WIyWlLk6GJQsqaUBKTNV-1" vertex="1">
          <mxGeometry x="414" y="1370" width="240" height="60" as="geometry" />
        </mxCell>
        <mxCell id="92I55pFNdv6Zz8E2jE-A-38" value="" style="edgeStyle=orthogonalEdgeStyle;rounded=0;orthogonalLoop=1;jettySize=auto;html=1;" parent="WIyWlLk6GJQsqaUBKTNV-1" source="92I55pFNdv6Zz8E2jE-A-34" target="92I55pFNdv6Zz8E2jE-A-37" edge="1">
          <mxGeometry relative="1" as="geometry" />
        </mxCell>
        <mxCell id="92I55pFNdv6Zz8E2jE-A-34" value="DA_COMMAND_MSG_TRANSPORT" style="rounded=0;whiteSpace=wrap;html=1;" parent="WIyWlLk6GJQsqaUBKTNV-1" vertex="1">
          <mxGeometry x="-35" y="1410" width="215" height="60" as="geometry" />
        </mxCell>
        <mxCell id="92I55pFNdv6Zz8E2jE-A-40" value="" style="edgeStyle=orthogonalEdgeStyle;rounded=0;orthogonalLoop=1;jettySize=auto;html=1;" parent="WIyWlLk6GJQsqaUBKTNV-1" source="92I55pFNdv6Zz8E2jE-A-37" target="92I55pFNdv6Zz8E2jE-A-39" edge="1">
          <mxGeometry relative="1" as="geometry" />
        </mxCell>
        <mxCell id="92I55pFNdv6Zz8E2jE-A-37" value="&lt;div style=&quot;color: rgb(204, 204, 204); background-color: rgb(31, 31, 31); font-family: &amp;quot;Droid Sans Mono&amp;quot;, &amp;quot;monospace&amp;quot;, monospace; font-size: 14px; line-height: 19px;&quot;&gt;sendmsg&lt;/div&gt;" style="whiteSpace=wrap;html=1;rounded=0;" parent="WIyWlLk6GJQsqaUBKTNV-1" vertex="1">
          <mxGeometry x="12.5" y="1550" width="120" height="60" as="geometry" />
        </mxCell>
        <mxCell id="92I55pFNdv6Zz8E2jE-A-39" value="send" style="whiteSpace=wrap;html=1;rounded=0;" parent="WIyWlLk6GJQsqaUBKTNV-1" vertex="1">
          <mxGeometry x="12.5" y="1650" width="120" height="60" as="geometry" />
        </mxCell>
        <mxCell id="92I55pFNdv6Zz8E2jE-A-43" value="&lt;div style=&quot;color: rgb(204, 204, 204); background-color: rgb(31, 31, 31); font-family: &amp;quot;Droid Sans Mono&amp;quot;, &amp;quot;monospace&amp;quot;, monospace; font-weight: normal; font-size: 14px; line-height: 19px;&quot;&gt;&lt;div&gt;&lt;span style=&quot;color: #dcdcaa;&quot;&gt;recvmsg&lt;/span&gt;&lt;/div&gt;&lt;/div&gt;" style="whiteSpace=wrap;html=1;rounded=0;" parent="WIyWlLk6GJQsqaUBKTNV-1" vertex="1">
          <mxGeometry x="325" y="1610" width="120" height="60" as="geometry" />
        </mxCell>
        <mxCell id="92I55pFNdv6Zz8E2jE-A-46" value="" style="edgeStyle=orthogonalEdgeStyle;rounded=0;orthogonalLoop=1;jettySize=auto;html=1;" parent="WIyWlLk6GJQsqaUBKTNV-1" source="92I55pFNdv6Zz8E2jE-A-43" target="92I55pFNdv6Zz8E2jE-A-45" edge="1">
          <mxGeometry relative="1" as="geometry" />
        </mxCell>
        <mxCell id="92I55pFNdv6Zz8E2jE-A-45" value="read" style="whiteSpace=wrap;html=1;rounded=0;" parent="WIyWlLk6GJQsqaUBKTNV-1" vertex="1">
          <mxGeometry x="325" y="1700" width="120" height="60" as="geometry" />
        </mxCell>
        <mxCell id="92I55pFNdv6Zz8E2jE-A-50" style="edgeStyle=orthogonalEdgeStyle;rounded=0;orthogonalLoop=1;jettySize=auto;html=1;entryX=0.5;entryY=0;entryDx=0;entryDy=0;" parent="WIyWlLk6GJQsqaUBKTNV-1" source="92I55pFNdv6Zz8E2jE-A-48" target="92I55pFNdv6Zz8E2jE-A-63" edge="1">
          <mxGeometry relative="1" as="geometry">
            <mxPoint x="-150" y="1570" as="targetPoint" />
          </mxGeometry>
        </mxCell>
        <mxCell id="92I55pFNdv6Zz8E2jE-A-48" value="&lt;div style=&quot;color: rgb(204, 204, 204); background-color: rgb(31, 31, 31); font-family: &amp;quot;Droid Sans Mono&amp;quot;, &amp;quot;monospace&amp;quot;, monospace; font-size: 14px; line-height: 19px;&quot;&gt;STATUS&lt;/div&gt;" style="rounded=0;whiteSpace=wrap;html=1;" parent="WIyWlLk6GJQsqaUBKTNV-1" vertex="1">
          <mxGeometry x="-210" y="1410" width="120" height="60" as="geometry" />
        </mxCell>
        <mxCell id="92I55pFNdv6Zz8E2jE-A-59" value="" style="edgeStyle=orthogonalEdgeStyle;rounded=0;orthogonalLoop=1;jettySize=auto;html=1;exitX=0.5;exitY=1;exitDx=0;exitDy=0;" parent="WIyWlLk6GJQsqaUBKTNV-1" source="92I55pFNdv6Zz8E2jE-A-63" target="92I55pFNdv6Zz8E2jE-A-58" edge="1">
          <mxGeometry relative="1" as="geometry">
            <mxPoint x="-150" y="1780" as="sourcePoint" />
          </mxGeometry>
        </mxCell>
        <mxCell id="92I55pFNdv6Zz8E2jE-A-83" value="fail" style="edgeLabel;html=1;align=center;verticalAlign=middle;resizable=0;points=[];" parent="92I55pFNdv6Zz8E2jE-A-59" vertex="1" connectable="0">
          <mxGeometry x="0.01" relative="1" as="geometry">
            <mxPoint as="offset" />
          </mxGeometry>
        </mxCell>
        <mxCell id="92I55pFNdv6Zz8E2jE-A-77" style="edgeStyle=orthogonalEdgeStyle;rounded=0;orthogonalLoop=1;jettySize=auto;html=1;entryX=0;entryY=0.5;entryDx=0;entryDy=0;dashed=1;" parent="WIyWlLk6GJQsqaUBKTNV-1" source="92I55pFNdv6Zz8E2jE-A-58" target="92I55pFNdv6Zz8E2jE-A-75" edge="1">
          <mxGeometry relative="1" as="geometry">
            <Array as="points">
              <mxPoint x="-140" y="1920" />
            </Array>
          </mxGeometry>
        </mxCell>
        <mxCell id="92I55pFNdv6Zz8E2jE-A-58" value="&lt;div style=&quot;color: rgb(204, 204, 204); background-color: rgb(31, 31, 31); font-family: &amp;quot;Droid Sans Mono&amp;quot;, &amp;quot;monospace&amp;quot;, monospace; font-size: 14px; line-height: 19px;&quot;&gt;send&lt;/div&gt;" style="whiteSpace=wrap;html=1;rounded=0;fillColor=#f8cecc;strokeColor=#b85450;" parent="WIyWlLk6GJQsqaUBKTNV-1" vertex="1">
          <mxGeometry x="-210" y="1720" width="120" height="60" as="geometry" />
        </mxCell>
        <mxCell id="92I55pFNdv6Zz8E2jE-A-67" style="edgeStyle=orthogonalEdgeStyle;rounded=0;orthogonalLoop=1;jettySize=auto;html=1;" parent="WIyWlLk6GJQsqaUBKTNV-1" source="92I55pFNdv6Zz8E2jE-A-63" target="92I55pFNdv6Zz8E2jE-A-65" edge="1">
          <mxGeometry relative="1" as="geometry" />
        </mxCell>
        <mxCell id="92I55pFNdv6Zz8E2jE-A-82" value="ok" style="edgeLabel;html=1;align=center;verticalAlign=middle;resizable=0;points=[];" parent="92I55pFNdv6Zz8E2jE-A-67" vertex="1" connectable="0">
          <mxGeometry x="-0.1257" y="1" relative="1" as="geometry">
            <mxPoint as="offset" />
          </mxGeometry>
        </mxCell>
        <mxCell id="92I55pFNdv6Zz8E2jE-A-63" value="&lt;div style=&quot;color: rgb(204, 204, 204); background-color: rgb(31, 31, 31); font-family: &amp;quot;Droid Sans Mono&amp;quot;, &amp;quot;monospace&amp;quot;, monospace; font-size: 14px; line-height: 19px;&quot;&gt;get_status&lt;/div&gt;" style="rhombus;whiteSpace=wrap;html=1;fillColor=#f8cecc;strokeColor=#b85450;" parent="WIyWlLk6GJQsqaUBKTNV-1" vertex="1">
          <mxGeometry x="-210" y="1560" width="120" height="80" as="geometry" />
        </mxCell>
        <mxCell id="92I55pFNdv6Zz8E2jE-A-68" style="edgeStyle=orthogonalEdgeStyle;rounded=0;orthogonalLoop=1;jettySize=auto;html=1;exitX=0.5;exitY=1;exitDx=0;exitDy=0;entryX=0;entryY=0.5;entryDx=0;entryDy=0;" parent="WIyWlLk6GJQsqaUBKTNV-1" source="92I55pFNdv6Zz8E2jE-A-65" target="92I55pFNdv6Zz8E2jE-A-58" edge="1">
          <mxGeometry relative="1" as="geometry" />
        </mxCell>
        <mxCell id="92I55pFNdv6Zz8E2jE-A-80" style="edgeStyle=orthogonalEdgeStyle;rounded=0;orthogonalLoop=1;jettySize=auto;html=1;dashed=1;entryX=-0.001;entryY=0.368;entryDx=0;entryDy=0;entryPerimeter=0;" parent="WIyWlLk6GJQsqaUBKTNV-1" source="92I55pFNdv6Zz8E2jE-A-65" target="92I55pFNdv6Zz8E2jE-A-78" edge="1">
          <mxGeometry relative="1" as="geometry">
            <mxPoint x="480" y="2100" as="targetPoint" />
            <Array as="points">
              <mxPoint x="-450" y="1600" />
              <mxPoint x="-450" y="2085" />
              <mxPoint x="480" y="2085" />
            </Array>
          </mxGeometry>
        </mxCell>
        <mxCell id="92I55pFNdv6Zz8E2jE-A-65" value="pipe_send" style="rounded=0;whiteSpace=wrap;html=1;" parent="WIyWlLk6GJQsqaUBKTNV-1" vertex="1">
          <mxGeometry x="-400" y="1570" width="120" height="60" as="geometry" />
        </mxCell>
        <mxCell id="92I55pFNdv6Zz8E2jE-A-73" value="" style="edgeStyle=orthogonalEdgeStyle;rounded=0;orthogonalLoop=1;jettySize=auto;html=1;" parent="WIyWlLk6GJQsqaUBKTNV-1" source="92I55pFNdv6Zz8E2jE-A-70" target="92I55pFNdv6Zz8E2jE-A-72" edge="1">
          <mxGeometry relative="1" as="geometry" />
        </mxCell>
        <mxCell id="92I55pFNdv6Zz8E2jE-A-70" value="&lt;div style=&quot;color: rgb(204, 204, 204); background-color: rgb(31, 31, 31); font-family: &amp;quot;Droid Sans Mono&amp;quot;, &amp;quot;monospace&amp;quot;, monospace; font-size: 14px; line-height: 19px;&quot;&gt;&lt;div style=&quot;line-height: 19px;&quot;&gt;wifid_send_request&lt;/div&gt;&lt;/div&gt;" style="rounded=0;whiteSpace=wrap;html=1;" parent="WIyWlLk6GJQsqaUBKTNV-1" vertex="1">
          <mxGeometry x="430" y="1790" width="230" height="60" as="geometry" />
        </mxCell>
        <mxCell id="92I55pFNdv6Zz8E2jE-A-74" style="edgeStyle=orthogonalEdgeStyle;rounded=0;orthogonalLoop=1;jettySize=auto;html=1;entryX=1;entryY=0.5;entryDx=0;entryDy=0;dashed=1;" parent="WIyWlLk6GJQsqaUBKTNV-1" source="92I55pFNdv6Zz8E2jE-A-72" target="92I55pFNdv6Zz8E2jE-A-48" edge="1">
          <mxGeometry relative="1" as="geometry">
            <Array as="points">
              <mxPoint x="-60" y="1830" />
              <mxPoint x="-60" y="1440" />
            </Array>
          </mxGeometry>
        </mxCell>
        <mxCell id="92I55pFNdv6Zz8E2jE-A-81" style="edgeStyle=orthogonalEdgeStyle;rounded=0;orthogonalLoop=1;jettySize=auto;html=1;" parent="WIyWlLk6GJQsqaUBKTNV-1" source="92I55pFNdv6Zz8E2jE-A-72" target="92I55pFNdv6Zz8E2jE-A-75" edge="1">
          <mxGeometry relative="1" as="geometry" />
        </mxCell>
        <mxCell id="92I55pFNdv6Zz8E2jE-A-72" value="send" style="whiteSpace=wrap;html=1;rounded=0;" parent="WIyWlLk6GJQsqaUBKTNV-1" vertex="1">
          <mxGeometry x="255" y="1790" width="120" height="60" as="geometry" />
        </mxCell>
        <mxCell id="92I55pFNdv6Zz8E2jE-A-88" value="" style="edgeStyle=orthogonalEdgeStyle;rounded=0;orthogonalLoop=1;jettySize=auto;html=1;" parent="WIyWlLk6GJQsqaUBKTNV-1" source="92I55pFNdv6Zz8E2jE-A-75" target="92I55pFNdv6Zz8E2jE-A-87" edge="1">
          <mxGeometry relative="1" as="geometry" />
        </mxCell>
        <mxCell id="92I55pFNdv6Zz8E2jE-A-94" value="fail" style="edgeLabel;html=1;align=center;verticalAlign=middle;resizable=0;points=[];" parent="92I55pFNdv6Zz8E2jE-A-88" vertex="1" connectable="0">
          <mxGeometry x="0.216" y="-3" relative="1" as="geometry">
            <mxPoint as="offset" />
          </mxGeometry>
        </mxCell>
        <mxCell id="92I55pFNdv6Zz8E2jE-A-92" value="" style="edgeStyle=orthogonalEdgeStyle;rounded=0;orthogonalLoop=1;jettySize=auto;html=1;" parent="WIyWlLk6GJQsqaUBKTNV-1" source="92I55pFNdv6Zz8E2jE-A-75" target="92I55pFNdv6Zz8E2jE-A-93" edge="1">
          <mxGeometry relative="1" as="geometry">
            <mxPoint x="405" y="1920" as="targetPoint" />
            <Array as="points">
              <mxPoint x="220" y="1920" />
              <mxPoint x="220" y="2185" />
            </Array>
          </mxGeometry>
        </mxCell>
        <mxCell id="92I55pFNdv6Zz8E2jE-A-95" value="ok" style="edgeLabel;html=1;align=center;verticalAlign=middle;resizable=0;points=[];" parent="92I55pFNdv6Zz8E2jE-A-92" vertex="1" connectable="0">
          <mxGeometry x="-0.7089" relative="1" as="geometry">
            <mxPoint as="offset" />
          </mxGeometry>
        </mxCell>
        <mxCell id="92I55pFNdv6Zz8E2jE-A-75" value="read" style="whiteSpace=wrap;html=1;rounded=0;fillColor=#f8cecc;strokeColor=#b85450;" parent="WIyWlLk6GJQsqaUBKTNV-1" vertex="1">
          <mxGeometry x="255" y="1890" width="120" height="60" as="geometry" />
        </mxCell>
        <mxCell id="92I55pFNdv6Zz8E2jE-A-78" value="&lt;div style=&quot;color: rgb(204, 204, 204); background-color: rgb(31, 31, 31); font-family: &amp;quot;Droid Sans Mono&amp;quot;, &amp;quot;monospace&amp;quot;, monospace; font-size: 14px; line-height: 19px;&quot;&gt;read&lt;/div&gt;" style="rounded=0;whiteSpace=wrap;html=1;align=center;" parent="WIyWlLk6GJQsqaUBKTNV-1" vertex="1">
          <mxGeometry x="507.5" y="2070" width="75" height="40" as="geometry" />
        </mxCell>
        <mxCell id="92I55pFNdv6Zz8E2jE-A-86" value="" style="edgeStyle=orthogonalEdgeStyle;rounded=0;orthogonalLoop=1;jettySize=auto;html=1;" parent="WIyWlLk6GJQsqaUBKTNV-1" source="92I55pFNdv6Zz8E2jE-A-85" target="92I55pFNdv6Zz8E2jE-A-32" edge="1">
          <mxGeometry relative="1" as="geometry" />
        </mxCell>
        <mxCell id="92I55pFNdv6Zz8E2jE-A-85" value="&lt;div style=&quot;color: rgb(204, 204, 204); background-color: rgb(31, 31, 31); font-family: &amp;quot;Droid Sans Mono&amp;quot;, &amp;quot;monospace&amp;quot;, monospace; font-size: 14px; line-height: 19px;&quot;&gt;wifi_connect_daemon&lt;/div&gt;" style="rounded=0;whiteSpace=wrap;html=1;" parent="WIyWlLk6GJQsqaUBKTNV-1" vertex="1">
          <mxGeometry x="427" y="1440" width="214" height="40" as="geometry" />
        </mxCell>
        <mxCell id="92I55pFNdv6Zz8E2jE-A-87" value="return -1" style="whiteSpace=wrap;html=1;fillColor=#e1d5e7;strokeColor=#9673a6;rounded=0;" parent="WIyWlLk6GJQsqaUBKTNV-1" vertex="1">
          <mxGeometry x="255" y="1980" width="120" height="60" as="geometry" />
        </mxCell>
        <mxCell id="92I55pFNdv6Zz8E2jE-A-89" value="&lt;div style=&quot;color: rgb(204, 204, 204); background-color: rgb(31, 31, 31); font-family: &amp;quot;Droid Sans Mono&amp;quot;, &amp;quot;monospace&amp;quot;, monospace; font-size: 14px; line-height: 19px;&quot;&gt;handle_command_free&lt;/div&gt;" style="rounded=0;whiteSpace=wrap;html=1;" parent="WIyWlLk6GJQsqaUBKTNV-1" vertex="1">
          <mxGeometry x="360" y="2210" width="345" height="60" as="geometry" />
        </mxCell>
        <mxCell id="92I55pFNdv6Zz8E2jE-A-93" value="&lt;div style=&quot;color: rgb(204, 204, 204); background-color: rgb(31, 31, 31); font-family: &amp;quot;Droid Sans Mono&amp;quot;, &amp;quot;monospace&amp;quot;, monospace; font-size: 14px; line-height: 19px;&quot;&gt;read_command_message&lt;/div&gt;" style="rounded=0;whiteSpace=wrap;html=1;" parent="WIyWlLk6GJQsqaUBKTNV-1" vertex="1">
          <mxGeometry x="438" y="2140" width="194" height="60" as="geometry" />
        </mxCell>
      </root>
    </mxGraphModel>
  </diagram>
  <diagram id="5APr0flGXvwLAxELc2qN" name="wpa_supplicant-wpa_cli交互图">
    <mxGraphModel dx="1519" dy="935" grid="1" gridSize="10" guides="1" tooltips="1" connect="1" arrows="1" fold="1" page="1" pageScale="1" pageWidth="827" pageHeight="1169" math="0" shadow="0">
      <root>
        <mxCell id="0" />
        <mxCell id="1" parent="0" />
        <mxCell id="5XXgqUbxdTj-DN0TxQBp-3" value=":Object" style="shape=umlLifeline;perimeter=lifelinePerimeter;whiteSpace=wrap;html=1;container=1;dropTarget=0;collapsible=0;recursiveResize=0;outlineConnect=0;portConstraint=eastwest;newEdgeStyle={&quot;edgeStyle&quot;:&quot;elbowEdgeStyle&quot;,&quot;elbow&quot;:&quot;vertical&quot;,&quot;curved&quot;:0,&quot;rounded&quot;:0};" vertex="1" parent="1">
          <mxGeometry x="70" y="40" width="100" height="1210" as="geometry" />
        </mxCell>
        <mxCell id="5XXgqUbxdTj-DN0TxQBp-4" value=":Object" style="shape=umlLifeline;perimeter=lifelinePerimeter;whiteSpace=wrap;html=1;container=1;dropTarget=0;collapsible=0;recursiveResize=0;outlineConnect=0;portConstraint=eastwest;newEdgeStyle={&quot;edgeStyle&quot;:&quot;elbowEdgeStyle&quot;,&quot;elbow&quot;:&quot;vertical&quot;,&quot;curved&quot;:0,&quot;rounded&quot;:0};" vertex="1" parent="1">
          <mxGeometry x="414" y="40" width="100" height="1210" as="geometry" />
        </mxCell>
      </root>
    </mxGraphModel>
  </diagram>
  <diagram id="wTnCr674ijVngKF6EW9C" name="wpa_cli">
    <mxGraphModel dx="1519" dy="935" grid="1" gridSize="10" guides="1" tooltips="1" connect="1" arrows="1" fold="1" page="1" pageScale="1" pageWidth="827" pageHeight="1169" math="0" shadow="0">
      <root>
        <mxCell id="0" />
        <mxCell id="1" parent="0" />
      </root>
    </mxGraphModel>
  </diagram>
  <diagram id="EVc8muyaFCiU5a7R5r2T" name="wifimanager-api使用">
    <mxGraphModel dx="1519" dy="935" grid="1" gridSize="10" guides="1" tooltips="1" connect="1" arrows="1" fold="1" page="1" pageScale="1" pageWidth="827" pageHeight="1169" math="0" shadow="0">
      <root>
        <mxCell id="0" />
        <mxCell id="1" parent="0" />
      </root>
    </mxGraphModel>
  </diagram>
</mxfile>
